# xmcd
#
# Track frame offsets: 
#        150
#        16398
#        35831
#        57069
#        72183
#        94050
#        109358
#        125398
#        148245
#        157663
#        176470
#        195798
#        212210
#        226065
#        241832
#
# Disc length: 3504 seconds
#
# Revision: 5
# Processed by: cddbd v1.5.2PL0 Copyright (c) Steve Scherf et al.
# Submitted via: ExactAudioCopy v0.99pb5
#
DISCID=c30dae0f
DTITLE=Eric Bibb - Friends
DYEAR=2004
DGENRE=Country
TTITLE0=99 1/2 Won't Do
TTITLE1=Six O'Clock Blues
TTITLE2=Goin' Down Slow
TTITLE3=Lovin' In My Baby's Eyes
TTITLE4=For You
TTITLE5=The Cape
TTITLE6='Tain't Such A Much
TTITLE7=Needed Time
TTITLE8=If I Stayed
TTITLE9=Connected
TTITLE10=Ribbons And Bows
TTITLE11=Just Look Up
TTITLE12=Cowgirl Queen
TTITLE13=Kulanjan - Sebastian's Tune
TTITLE14=Dance Me To The End Of Love
EXTD=eric bib
EXTT0=
EXTT1=
EXTT2=
EXTT3=
EXTT4=
EXTT5=
EXTT6=
EXTT7=
EXTT8=
EXTT9=
EXTT10=
EXTT11=
EXTT12=
EXTT13=
EXTT14=
PLAYORDER=
